<svg xmlns="http://www.w3.org/2000/svg" xmlns:xlink="http://www.w3.org/1999/xlink" width="500" zoomAndPan="magnify" viewBox="0 0 375 374.999991" height="500" preserveAspectRatio="xMidYMid meet" version="1.0"><defs><g/><clipPath id="706ea66b92"><path d="M 187.5 0 C 83.945312 0 0 83.945312 0 187.5 C 0 291.054688 83.945312 375 187.5 375 C 291.054688 375 375 291.054688 375 187.5 C 375 83.945312 291.054688 0 187.5 0 Z M 187.5 0 " clip-rule="nonzero"/></clipPath><clipPath id="76cc45892a"><path d="M 121.589844 90 L 271.589844 90 L 271.589844 197.550781 L 121.589844 197.550781 Z M 121.589844 90 " clip-rule="nonzero"/></clipPath></defs><g clip-path="url(#706ea66b92)"><rect x="-37.5" width="450" fill="#05a6e1" y="-37.499999" height="449.999989" fill-opacity="1"/></g><g clip-path="url(#76cc45892a)"><path fill="#000000" d="M 263.683594 92.675781 C 262.46875 91.027344 260.527344 90.035156 258.460938 90.035156 L 247.714844 90.035156 C 246.992188 90.035156 246.355469 90.515625 246.160156 91.1875 L 147.019531 91.1875 C 146.808594 90.515625 146.191406 90.035156 145.46875 90.035156 L 134.71875 90.035156 C 132.671875 90.035156 130.714844 91.027344 129.496094 92.675781 C 127.328125 95.613281 125.613281 100.554688 124.273438 107.726562 C 123.089844 114.15625 122.207031 122.214844 121.589844 132.394531 C 121.589844 132.519531 121.589844 132.625 121.609375 132.75 L 121.609375 144.3125 C 121.609375 144.4375 121.625 144.5625 121.660156 144.6875 L 125.578125 195.722656 C 125.578125 195.773438 125.597656 195.828125 125.597656 195.882812 C 125.738281 196.660156 126.410156 197.246094 127.203125 197.246094 L 265.980469 197.246094 C 266.828125 197.246094 267.550781 196.589844 267.601562 195.722656 L 268.503906 183.910156 L 271.519531 144.6875 C 271.554688 144.5625 271.574219 144.4375 271.574219 144.3125 L 271.574219 132.75 C 271.589844 132.644531 271.589844 132.519531 271.589844 132.394531 C 270.972656 122.214844 270.089844 114.136719 268.910156 107.726562 C 267.566406 100.539062 265.855469 95.613281 263.683594 92.675781 Z M 258.460938 93.332031 C 259.484375 93.332031 260.457031 93.808594 261.054688 94.625 C 262.910156 97.121094 264.460938 101.742188 265.695312 108.328125 C 266.792969 114.246094 267.621094 121.628906 268.21875 130.855469 L 258.265625 130.855469 C 258.230469 125.789062 257.96875 117.539062 256.890625 109.710938 C 255.816406 101.902344 254.226562 96.5 252.039062 93.3125 L 258.460938 93.3125 Z M 248.792969 94.464844 C 250.34375 96.253906 252.304688 100.449219 253.644531 110.171875 C 254.703125 117.804688 254.949219 125.898438 254.984375 130.855469 L 210.957031 130.855469 C 209.648438 128.359375 207.707031 126.25 205.363281 124.726562 C 206.171875 114.6875 205.960938 104.523438 204.742188 94.480469 L 248.792969 94.480469 Z M 191.71875 94.464844 L 201.445312 94.464844 C 202.625 103.972656 202.875 113.605469 202.203125 123.132812 C 202.0625 123.082031 201.9375 123.027344 201.796875 122.992188 C 201.777344 122.992188 201.761719 122.976562 201.742188 122.976562 C 201.65625 122.941406 201.550781 122.902344 201.460938 122.886719 C 201.410156 122.867188 201.339844 122.851562 201.285156 122.832031 C 201.230469 122.816406 201.179688 122.796875 201.125 122.78125 C 201.039062 122.761719 200.96875 122.726562 200.878906 122.710938 C 200.84375 122.710938 200.828125 122.691406 200.792969 122.691406 C 200.683594 122.65625 200.597656 122.636719 200.492188 122.621094 C 200.492188 122.621094 200.492188 122.621094 200.472656 122.621094 C 199.785156 122.445312 199.097656 122.320312 198.390625 122.25 C 198.375 122.25 198.375 122.25 198.355469 122.25 C 198.25 122.230469 198.160156 122.230469 198.054688 122.214844 C 198.019531 122.214844 197.984375 122.214844 197.96875 122.214844 C 197.878906 122.214844 197.792969 122.195312 197.703125 122.195312 C 197.648438 122.195312 197.597656 122.195312 197.5625 122.179688 C 197.492188 122.179688 197.421875 122.160156 197.351562 122.160156 C 197.277344 122.160156 197.207031 122.160156 197.136719 122.160156 C 197.085938 122.160156 197.03125 122.160156 196.960938 122.160156 C 196.839844 122.160156 196.714844 122.160156 196.609375 122.160156 C 196.609375 122.160156 196.589844 122.160156 196.589844 122.160156 C 196.589844 122.160156 196.574219 122.160156 196.574219 122.160156 C 196.449219 122.160156 196.328125 122.160156 196.21875 122.160156 C 196.167969 122.160156 196.113281 122.160156 196.042969 122.160156 C 195.972656 122.160156 195.902344 122.160156 195.832031 122.160156 C 195.761719 122.160156 195.691406 122.160156 195.621094 122.179688 C 195.566406 122.179688 195.515625 122.179688 195.480469 122.195312 C 195.390625 122.195312 195.304688 122.214844 195.214844 122.214844 C 195.179688 122.214844 195.144531 122.214844 195.125 122.214844 C 195.019531 122.230469 194.933594 122.230469 194.828125 122.25 C 194.808594 122.25 194.808594 122.25 194.792969 122.25 C 194.085938 122.335938 193.378906 122.460938 192.707031 122.621094 C 192.707031 122.621094 192.707031 122.621094 192.691406 122.621094 C 192.585938 122.636719 192.496094 122.675781 192.390625 122.691406 C 192.355469 122.691406 192.339844 122.710938 192.304688 122.710938 C 192.214844 122.726562 192.144531 122.761719 192.054688 122.78125 C 192.003906 122.796875 191.949219 122.816406 191.898438 122.832031 C 191.84375 122.851562 191.773438 122.867188 191.71875 122.886719 C 191.632812 122.921875 191.527344 122.941406 191.4375 122.976562 C 191.421875 122.976562 191.402344 122.992188 191.386719 122.992188 C 191.242188 123.046875 191.101562 123.082031 190.980469 123.132812 C 190.292969 113.605469 190.554688 103.992188 191.71875 94.464844 Z M 192.390625 126.109375 C 192.410156 126.109375 192.445312 126.089844 192.460938 126.089844 C 192.53125 126.074219 192.601562 126.039062 192.671875 126.019531 C 192.726562 126.003906 192.796875 125.984375 192.851562 125.96875 C 192.902344 125.949219 192.957031 125.933594 192.992188 125.933594 C 193.238281 125.863281 193.484375 125.789062 193.730469 125.738281 C 193.730469 125.738281 193.730469 125.738281 193.75 125.738281 C 193.875 125.703125 193.996094 125.683594 194.136719 125.667969 C 194.136719 125.667969 194.15625 125.667969 194.15625 125.667969 C 194.542969 125.597656 194.949219 125.523438 195.355469 125.488281 C 195.375 125.488281 195.375 125.488281 195.390625 125.488281 C 195.496094 125.472656 195.621094 125.472656 195.726562 125.453125 C 195.761719 125.453125 195.777344 125.453125 195.816406 125.453125 C 195.921875 125.453125 196.007812 125.4375 196.113281 125.4375 C 196.148438 125.4375 196.183594 125.4375 196.203125 125.4375 C 196.328125 125.4375 196.449219 125.4375 196.589844 125.4375 C 196.714844 125.4375 196.839844 125.4375 196.980469 125.4375 C 197.015625 125.4375 197.050781 125.4375 197.066406 125.4375 C 197.171875 125.4375 197.261719 125.4375 197.367188 125.453125 C 197.402344 125.453125 197.421875 125.453125 197.457031 125.453125 C 197.5625 125.453125 197.683594 125.472656 197.789062 125.488281 C 197.808594 125.488281 197.808594 125.488281 197.828125 125.488281 C 198.230469 125.523438 198.621094 125.578125 199.027344 125.667969 C 199.027344 125.667969 199.042969 125.667969 199.042969 125.667969 C 199.167969 125.683594 199.289062 125.71875 199.433594 125.738281 C 199.433594 125.738281 199.433594 125.738281 199.449219 125.738281 C 199.695312 125.789062 199.945312 125.863281 200.191406 125.933594 C 200.242188 125.949219 200.296875 125.96875 200.332031 125.96875 C 200.386719 125.984375 200.457031 126.003906 200.507812 126.019531 C 200.578125 126.039062 200.648438 126.074219 200.71875 126.089844 C 200.738281 126.089844 200.773438 126.109375 200.789062 126.109375 C 205.875 127.863281 209.542969 132.714844 209.542969 138.398438 C 209.542969 145.570312 203.738281 151.398438 196.589844 151.398438 C 189.445312 151.398438 183.636719 145.570312 183.636719 138.398438 C 183.636719 132.714844 187.308594 127.863281 192.390625 126.109375 Z M 144.390625 94.464844 L 188.421875 94.464844 C 187.203125 104.503906 186.992188 114.667969 187.804688 124.710938 C 185.457031 126.234375 183.515625 128.359375 182.207031 130.835938 L 138.195312 130.835938 C 138.25 125.292969 138.550781 116.226562 139.855469 108.082031 C 140.542969 103.796875 141.425781 100.34375 142.46875 97.828125 C 143.066406 96.394531 143.71875 95.261719 144.390625 94.464844 Z M 127.503906 108.328125 C 128.738281 101.742188 130.292969 97.121094 132.144531 94.625 C 132.742188 93.808594 133.714844 93.332031 134.738281 93.332031 L 141.179688 93.332031 C 139.203125 96.21875 137.703125 100.945312 136.644531 107.585938 C 135.304688 115.945312 135.003906 125.222656 134.949219 130.855469 L 124.960938 130.855469 C 125.5625 121.628906 126.390625 114.246094 127.503906 108.328125 Z M 124.875 134.148438 L 180.921875 134.148438 C 180.550781 135.511719 180.355469 136.945312 180.355469 138.417969 C 180.355469 139.886719 180.550781 141.320312 180.921875 142.683594 L 136.765625 142.683594 C 136.765625 142.683594 136.75 142.683594 136.75 142.683594 L 124.875 142.683594 Z M 125.03125 145.960938 L 135.25 145.960938 L 138.019531 182.140625 L 127.804688 182.140625 Z M 250.980469 193.949219 L 128.71875 193.949219 L 128.367188 189.398438 L 128.066406 185.414062 L 251.632812 185.414062 Z M 251.878906 182.140625 L 141.304688 182.140625 L 138.53125 145.960938 L 182.226562 145.960938 C 184.945312 151.148438 190.363281 154.691406 196.589844 154.691406 C 202.820312 154.691406 208.238281 151.148438 210.957031 145.960938 L 254.648438 145.960938 Z M 264.460938 193.949219 L 254.242188 193.949219 L 254.898438 185.414062 L 265.113281 185.414062 Z M 265.378906 182.140625 L 255.160156 182.140625 L 257.933594 145.960938 L 268.148438 145.960938 Z M 268.308594 142.683594 L 256.433594 142.683594 C 256.433594 142.683594 256.433594 142.683594 256.414062 142.683594 L 212.242188 142.683594 C 212.613281 141.320312 212.808594 139.886719 212.808594 138.417969 C 212.808594 136.945312 212.613281 135.511719 212.242188 134.148438 L 268.292969 134.148438 L 268.292969 142.683594 Z M 268.308594 142.683594 " fill-opacity="1" fill-rule="nonzero"/></g><path fill="#000000" d="M 191.457031 145.074219 C 191.332031 145.570312 191.4375 146.085938 191.753906 146.492188 C 192.074219 146.898438 192.550781 147.128906 193.042969 147.128906 L 200.121094 147.128906 C 200.632812 147.128906 201.109375 146.898438 201.410156 146.492188 C 201.726562 146.085938 201.832031 145.570312 201.707031 145.074219 L 200.191406 139.019531 C 201.285156 138.007812 201.9375 136.59375 201.9375 135.050781 C 201.9375 133.671875 201.410156 132.359375 200.472656 131.351562 C 199.46875 130.289062 198.054688 129.667969 196.589844 129.667969 C 195.125 129.667969 193.714844 130.289062 192.707031 131.351562 C 191.753906 132.359375 191.242188 133.671875 191.242188 135.050781 C 191.242188 136.574219 191.898438 138.007812 192.992188 139.019531 Z M 195.074219 133.636719 C 195.480469 133.210938 196.007812 132.980469 196.589844 132.980469 C 197.171875 132.980469 197.703125 133.210938 198.109375 133.636719 C 198.480469 134.023438 198.671875 134.539062 198.671875 135.070312 C 198.671875 135.847656 198.25 136.539062 197.578125 136.910156 C 196.925781 137.265625 196.589844 138.027344 196.765625 138.753906 L 198.039062 143.835938 L 195.144531 143.835938 L 196.414062 138.753906 C 196.589844 138.027344 196.253906 137.265625 195.601562 136.910156 C 194.933594 136.539062 194.507812 135.847656 194.507812 135.070312 C 194.507812 134.539062 194.703125 134.023438 195.074219 133.636719 Z M 195.074219 133.636719 " fill-opacity="1" fill-rule="nonzero"/><g fill="#1e1e1e" fill-opacity="1"><g transform="translate(97.371792, 257.948684)"><g><path d="M 2.984375 -32.328125 L 0.328125 -32.328125 L 2.984375 -44.28125 L 16.40625 -44.28125 C 17.769531 -44.28125 18.984375 -44.234375 20.046875 -44.140625 C 21.109375 -44.054688 22.0625 -43.9375 22.90625 -43.78125 C 23.75 -43.625 24.488281 -43.398438 25.125 -43.109375 C 25.769531 -42.828125 26.378906 -42.488281 26.953125 -42.09375 C 28.148438 -41.164062 29.078125 -39.914062 29.734375 -38.34375 C 30.398438 -36.769531 30.734375 -34.988281 30.734375 -33 C 30.734375 -30.738281 30.390625 -28.863281 29.703125 -27.375 C 29.023438 -25.894531 27.84375 -24.5625 26.15625 -23.375 C 28.238281 -22.613281 29.753906 -21.347656 30.703125 -19.578125 C 31.660156 -17.804688 32.140625 -15.441406 32.140625 -12.484375 C 32.140625 -8.015625 30.851562 -4.648438 28.28125 -2.390625 C 27.75 -1.898438 27.195312 -1.5 26.625 -1.1875 C 26.050781 -0.882812 25.34375 -0.644531 24.5 -0.46875 C 23.65625 -0.289062 22.644531 -0.164062 21.46875 -0.09375 C 20.300781 -0.03125 18.851562 0 17.125 0 L 2.984375 0 Z M 14.9375 -26.359375 C 16.613281 -26.359375 17.71875 -26.597656 18.25 -27.078125 C 18.78125 -27.566406 19.046875 -28.546875 19.046875 -30.015625 C 19.046875 -31.203125 18.78125 -32.0625 18.25 -32.59375 C 17.71875 -33.125 16.859375 -33.390625 15.671875 -33.390625 L 14.9375 -33.390625 Z M 14.9375 -11.015625 C 15.15625 -10.972656 15.363281 -10.953125 15.5625 -10.953125 C 15.769531 -10.953125 15.914062 -10.953125 16 -10.953125 C 17.28125 -10.953125 18.1875 -11.257812 18.71875 -11.875 C 19.25 -12.5 19.515625 -13.539062 19.515625 -15 C 19.515625 -16.457031 19.179688 -17.460938 18.515625 -18.015625 C 17.859375 -18.578125 16.664062 -18.859375 14.9375 -18.859375 Z M 14.9375 -11.015625 "/></g></g></g><g fill="#1e1e1e" fill-opacity="1"><g transform="translate(131.159483, 257.948684)"><g><path d="M 2.78125 -34.515625 L 0.328125 -34.515625 L 2.78125 -45.34375 L 13.671875 -45.34375 L 13.671875 -10.625 L 16 -10.625 L 13.671875 0 L 2.78125 0 Z M 2.78125 -34.515625 "/></g></g></g><g fill="#1e1e1e" fill-opacity="1"><g transform="translate(147.489095, 257.948684)"><g><path d="M 17.53125 -9.765625 L 15.34375 0 C 15.113281 0 14.898438 -0.0078125 14.703125 -0.03125 C 14.503906 -0.0507812 14.28125 -0.0625 14.03125 -0.0625 C 13.789062 -0.0625 13.484375 -0.0625 13.109375 -0.0625 C 12.734375 -0.0625 12.238281 -0.0625 11.625 -0.0625 C 9.675781 -0.0625 8.125 -0.335938 6.96875 -0.890625 C 5.820312 -1.441406 4.867188 -2.363281 4.109375 -3.65625 C 3.804688 -4.1875 3.566406 -4.671875 3.390625 -5.109375 C 3.210938 -5.554688 3.078125 -6.109375 2.984375 -6.765625 C 2.898438 -7.429688 2.84375 -8.285156 2.8125 -9.328125 C 2.789062 -10.367188 2.78125 -11.726562 2.78125 -13.40625 L 2.78125 -21.4375 L 0.328125 -21.4375 L 2.78125 -32.328125 L 13.671875 -32.328125 L 13.671875 -18.921875 C 13.671875 -17.546875 13.679688 -16.4375 13.703125 -15.59375 C 13.734375 -14.757812 13.757812 -14.078125 13.78125 -13.546875 C 13.800781 -13.015625 13.84375 -12.613281 13.90625 -12.34375 C 13.976562 -12.082031 14.078125 -11.863281 14.203125 -11.6875 C 14.429688 -11.332031 14.785156 -11.054688 15.265625 -10.859375 C 15.753906 -10.660156 16.265625 -10.5625 16.796875 -10.5625 C 16.878906 -10.5625 16.976562 -10.5625 17.09375 -10.5625 C 17.207031 -10.5625 17.351562 -10.582031 17.53125 -10.625 L 17.53125 -32.328125 L 28.421875 -32.328125 L 28.421875 -10.625 L 30.734375 -10.625 L 28.421875 0 L 17.53125 0 Z M 17.53125 -9.765625 "/></g></g></g><g fill="#1e1e1e" fill-opacity="1"><g transform="translate(178.555186, 257.948684)"><g><path d="M -0.796875 -44.28125 L 12.28125 -44.28125 L 17.0625 -22.109375 L 21.78125 -44.28125 L 34.984375 -44.28125 L 22.90625 0 L 11.21875 0 Z M -0.796875 -44.28125 "/></g></g></g><g fill="#1e1e1e" fill-opacity="1"><g transform="translate(212.74116, 257.948684)"><g><path d="M 13.9375 -0.125 C 11.90625 -0.21875 10.347656 -0.429688 9.265625 -0.765625 C 8.179688 -1.097656 7.148438 -1.707031 6.171875 -2.59375 C 4.535156 -4.050781 3.296875 -5.953125 2.453125 -8.296875 C 1.609375 -10.640625 1.1875 -13.34375 1.1875 -16.40625 C 1.1875 -18.832031 1.472656 -21.039062 2.046875 -23.03125 C 2.628906 -25.03125 3.453125 -26.738281 4.515625 -28.15625 C 5.578125 -29.570312 6.867188 -30.65625 8.390625 -31.40625 C 9.921875 -32.15625 11.617188 -32.53125 13.484375 -32.53125 C 14.492188 -32.53125 15.40625 -32.421875 16.21875 -32.203125 C 17.039062 -31.984375 17.894531 -31.628906 18.78125 -31.140625 L 18.78125 -32.328125 L 29.28125 -32.328125 L 29.28125 -10.625 L 31.609375 -10.625 L 29.28125 0 L 18.390625 0 L 18.390625 -9.765625 L 16.203125 0 Z M 18.390625 -16.859375 C 18.390625 -17.660156 18.378906 -18.3125 18.359375 -18.8125 C 18.335938 -19.320312 18.289062 -19.742188 18.21875 -20.078125 C 18.15625 -20.410156 18.078125 -20.675781 17.984375 -20.875 C 17.898438 -21.070312 17.769531 -21.257812 17.59375 -21.4375 C 17.101562 -21.96875 16.503906 -22.234375 15.796875 -22.234375 C 14.785156 -22.234375 13.96875 -21.710938 13.34375 -20.671875 C 12.726562 -19.640625 12.421875 -18.28125 12.421875 -16.59375 C 12.421875 -12.570312 13.988281 -10.5625 17.125 -10.5625 C 17.21875 -10.5625 17.394531 -10.5625 17.65625 -10.5625 C 17.925781 -10.5625 18.171875 -10.582031 18.390625 -10.625 Z M 18.390625 -16.859375 "/></g></g></g><g fill="#1e1e1e" fill-opacity="1"><g transform="translate(244.6702, 257.948684)"><g><path d="M 17.53125 -9.765625 L 15.34375 0 C 15.113281 0 14.898438 -0.0078125 14.703125 -0.03125 C 14.503906 -0.0507812 14.28125 -0.0625 14.03125 -0.0625 C 13.789062 -0.0625 13.484375 -0.0625 13.109375 -0.0625 C 12.734375 -0.0625 12.238281 -0.0625 11.625 -0.0625 C 9.675781 -0.0625 8.125 -0.335938 6.96875 -0.890625 C 5.820312 -1.441406 4.867188 -2.363281 4.109375 -3.65625 C 3.804688 -4.1875 3.566406 -4.671875 3.390625 -5.109375 C 3.210938 -5.554688 3.078125 -6.109375 2.984375 -6.765625 C 2.898438 -7.429688 2.84375 -8.285156 2.8125 -9.328125 C 2.789062 -10.367188 2.78125 -11.726562 2.78125 -13.40625 L 2.78125 -21.4375 L 0.328125 -21.4375 L 2.78125 -32.328125 L 13.671875 -32.328125 L 13.671875 -18.921875 C 13.671875 -17.546875 13.679688 -16.4375 13.703125 -15.59375 C 13.734375 -14.757812 13.757812 -14.078125 13.78125 -13.546875 C 13.800781 -13.015625 13.84375 -12.613281 13.90625 -12.34375 C 13.976562 -12.082031 14.078125 -11.863281 14.203125 -11.6875 C 14.429688 -11.332031 14.785156 -11.054688 15.265625 -10.859375 C 15.753906 -10.660156 16.265625 -10.5625 16.796875 -10.5625 C 16.878906 -10.5625 16.976562 -10.5625 17.09375 -10.5625 C 17.207031 -10.5625 17.351562 -10.582031 17.53125 -10.625 L 17.53125 -32.328125 L 28.421875 -32.328125 L 28.421875 -10.625 L 30.734375 -10.625 L 28.421875 0 L 17.53125 0 Z M 17.53125 -9.765625 "/></g></g></g><g fill="#1e1e1e" fill-opacity="1"><g transform="translate(275.736297, 257.948684)"><g><path d="M 2.78125 -34.515625 L 0.328125 -34.515625 L 2.78125 -45.34375 L 13.671875 -45.34375 L 13.671875 -10.625 L 16 -10.625 L 13.671875 0 L 2.78125 0 Z M 2.78125 -34.515625 "/></g></g></g><g fill="#1e1e1e" fill-opacity="1"><g transform="translate(292.065909, 257.948684)"><g><path d="M 3.65625 -21.515625 L 0.265625 -21.515625 L 2.59375 -32.328125 L 3.65625 -32.328125 L 3.65625 -36.375 L 14.546875 -39.171875 L 14.546875 -32.328125 L 19.1875 -32.328125 L 16.734375 -21.515625 L 14.546875 -21.515625 L 14.546875 0 L 3.65625 0 Z M 3.65625 -21.515625 "/></g></g></g><path stroke-linecap="butt" transform="matrix(0.208257, 0, 0, 0.208257, 96.290381, 258.315715)" fill="none" stroke-linejoin="miter" d="M 7.777783 91.574537 L 0.837728 91.574537 L 7.777783 60.400558 L 42.815685 60.400558 C 46.398254 60.400558 49.586928 60.5131 52.344193 60.738183 C 55.101459 60.963266 57.596127 61.282133 59.790685 61.713542 C 61.985243 62.107437 63.917205 62.688901 65.586569 63.439177 C 67.274691 64.170697 68.869028 65.071028 70.369581 66.102658 C 73.501984 68.541056 75.921625 71.804758 77.64726 75.931277 C 79.372896 80.020283 80.235714 84.653239 80.235714 89.848902 C 80.235714 95.73857 79.316625 100.634123 77.515962 104.53556 C 75.734056 108.399482 72.67668 111.888267 68.287564 114.983157 C 73.70831 116.952632 77.666017 120.253847 80.141929 124.886803 C 82.617841 129.519759 83.874553 135.690781 83.874553 143.418627 C 83.874553 155.10418 80.517067 163.882412 73.839608 169.772081 C 72.451597 171.04755 71.007315 172.097937 69.488006 172.904484 C 67.987454 173.692274 66.13052 174.330009 63.935962 174.817689 C 61.760161 175.267854 59.134194 175.567965 56.058061 175.736777 C 53.019442 175.924346 49.230547 175.999374 44.728889 175.999374 L 7.777783 175.999374 Z M 39.008033 107.19904 C 43.378392 107.19904 46.266956 106.561305 47.654967 105.285836 C 49.061735 104.029123 49.75574 101.478184 49.75574 97.670532 C 49.75574 94.538128 49.061735 92.2873 47.654967 90.899288 C 46.266956 89.530034 44.016127 88.836029 40.921237 88.836029 L 39.008033 88.836029 Z M 39.008033 147.226279 C 39.57074 147.33882 40.11469 147.395091 40.621127 147.395091 C 41.165077 147.395091 41.540215 147.395091 41.765298 147.395091 C 45.122784 147.395091 47.486155 146.588544 48.874166 144.97545 C 50.262177 143.343599 50.937425 140.623848 50.937425 136.816196 C 50.937425 133.008544 50.074608 130.382577 48.330215 128.938295 C 46.60458 127.51277 43.490933 126.781251 39.008033 126.781251 Z M 133.955494 150.527495 L 128.253394 175.999374 C 127.67193 175.999374 127.12798 175.980617 126.602787 175.924346 C 126.09635 175.868075 125.514886 175.830562 124.858394 175.830562 C 124.239416 175.830562 123.432869 175.830562 122.45751 175.830562 C 121.463394 175.830562 120.169168 175.830562 118.556074 175.830562 C 113.472952 175.830562 109.42146 175.117799 106.420355 173.673517 C 103.41925 172.229235 100.943338 169.828351 98.955106 166.470865 C 98.148559 165.101611 97.510825 163.826141 97.060659 162.663213 C 96.610493 161.519042 96.254112 160.07476 96.010272 158.349125 C 95.785189 156.604732 95.635134 154.37266 95.578863 151.671666 C 95.522592 148.933157 95.485079 145.369345 95.485079 140.998986 L 95.485079 120.010008 L 89.070217 120.010008 L 95.485079 91.574537 L 123.920549 91.574537 L 123.920549 126.612439 C 123.920549 130.195008 123.958063 133.102328 124.014334 135.296886 C 124.070604 137.472688 124.126875 139.254594 124.183146 140.661362 C 124.239416 142.049373 124.351958 143.09976 124.52077 143.793765 C 124.689582 144.469014 124.952179 145.031721 125.327317 145.500644 C 125.890024 146.419732 126.809113 147.151251 128.084582 147.695202 C 129.341295 148.201638 130.673035 148.445478 132.061046 148.445478 C 132.286129 148.445478 132.529969 148.445478 132.811323 148.445478 C 133.13019 148.445478 133.505328 148.389207 133.955494 148.276666 L 133.955494 91.574537 L 162.390964 91.574537 L 162.390964 148.276666 L 168.449445 148.276666 L 162.390964 175.999374 L 133.955494 175.999374 Z M 209.358259 175.830562 C 206.113314 175.71802 203.562374 175.624236 201.705441 175.567965 C 199.867264 175.511694 198.366711 175.399153 197.203783 175.230341 C 196.059612 175.042771 195.10301 174.798932 194.333976 174.517578 C 193.602457 174.236225 192.720882 173.861086 191.670496 173.410921 C 185.555744 170.522357 180.810247 165.608047 177.45276 158.686749 C 174.114031 151.746693 172.463423 143.362356 172.463423 133.51498 C 172.463423 127.062604 173.176186 121.21045 174.620468 115.958516 C 176.045992 110.687825 178.146766 106.186167 180.922788 102.491057 C 183.717567 98.795946 187.075054 95.98241 190.995247 94.031692 C 194.915441 92.062217 199.304557 91.068101 204.143839 91.068101 C 206.582236 91.068101 208.739281 91.31194 210.633728 91.79962 C 212.546933 92.249786 214.779005 93.056333 217.348701 94.200504 L 217.348701 85.872437 L 210.915082 85.872437 L 217.348701 57.605779 L 245.746657 57.605779 L 245.746657 148.276666 L 251.842652 148.276666 L 245.746657 175.999374 L 217.348701 175.999374 L 217.348701 150.527495 L 211.59033 175.999374 Z M 217.348701 133.346168 C 217.348701 130.926527 217.311187 128.994566 217.217402 127.550284 C 217.161132 126.106002 217.04859 124.90556 216.879778 123.911444 C 216.710966 122.917328 216.467126 122.148295 216.129502 121.585588 C 215.791878 120.985367 215.379226 120.403903 214.891546 119.841195 C 213.634833 118.809565 212.246822 118.284372 210.74627 118.284372 C 207.989004 118.284372 205.794446 119.616112 204.143839 122.260836 C 202.549501 124.90556 201.742955 128.431859 201.742955 132.839732 C 201.742955 138.391776 202.718314 142.386997 204.650275 144.806638 C 206.638507 147.245036 209.827181 148.445478 214.216297 148.445478 C 214.44138 148.445478 214.872789 148.445478 215.491767 148.445478 C 216.148259 148.445478 216.767237 148.389207 217.348701 148.276666 Z M 264.278481 173.410921 C 268.573813 175.361639 272.756603 176.880948 276.864365 177.987606 C 280.972128 179.094263 284.53594 179.638214 287.518288 179.638214 C 290.050471 179.638214 292.094974 179.375617 293.651797 178.831667 C 295.227377 178.32523 296.48409 177.331114 297.384421 175.830562 C 298.30351 174.330009 298.941245 172.32302 299.278869 169.772081 C 299.654007 167.221141 299.822819 163.919926 299.822819 159.887191 L 299.822819 148.276666 L 294.96478 169.565755 C 293.801852 169.828351 292.826493 169.940893 292.001189 169.940893 C 291.213399 169.940893 290.350581 169.940893 289.431493 169.940893 C 278.439946 169.940893 270.430747 167.464981 265.347625 162.494401 C 259.120332 156.004511 255.987928 146.476003 255.987928 133.890118 C 255.987928 127.51277 256.681934 121.716886 258.069945 116.464952 C 259.457956 111.213018 261.389918 106.711361 263.865829 102.959979 C 266.341741 99.189841 269.342846 96.263764 272.869144 94.200504 C 276.395443 92.118487 280.315636 91.068101 284.592211 91.068101 C 287.255692 91.068101 289.656576 91.424482 291.832377 92.137244 C 294.026935 92.812493 296.709173 94.144233 299.822819 96.113708 L 299.822819 91.574537 L 328.25829 91.574537 L 328.25829 166.470865 C 328.25829 170.165976 328.239533 173.204595 328.183262 175.567965 C 328.126991 177.950092 327.995693 179.90081 327.808124 181.457634 C 327.639312 183.014457 327.376715 184.308683 327.039091 185.35907 C 326.701466 186.3907 326.288814 187.497357 325.819892 188.660286 C 323.381494 193.612109 319.367516 197.457275 313.759201 200.158269 C 308.169643 202.896778 301.45467 204.266032 293.614283 204.266032 C 288.17478 204.266032 282.528951 203.778352 276.676796 202.784236 C 270.843398 201.79012 264.972487 200.364595 259.082818 198.507662 Z M 299.822819 132.670919 C 299.822819 127.118875 299.372653 123.32998 298.434808 121.322991 C 297.496963 119.297245 295.771327 118.284372 293.239145 118.284372 C 290.800747 118.284372 288.868786 119.522328 287.424504 121.99824 C 285.998979 124.492908 285.26746 127.925422 285.26746 132.333295 C 285.26746 136.703654 286.130277 139.817301 287.855913 141.674235 C 289.600305 143.549925 292.657681 144.469014 297.046797 144.469014 C 297.403178 144.469014 297.778316 144.469014 298.190968 144.469014 C 298.584863 144.469014 299.128814 144.412743 299.822819 144.262688 Z M 399.834645 175.155313 C 396.252076 176.055644 392.95086 176.712136 389.930998 177.106031 C 386.929893 177.518683 383.816247 177.743766 380.571302 177.743766 C 372.618374 177.743766 365.903401 176.374512 360.388871 173.673517 C 354.911854 170.935009 350.20387 166.639677 346.26492 160.768766 C 340.619091 152.328158 337.805555 142.91219 337.805555 132.502107 C 337.805555 126.499897 338.705887 120.891582 340.544063 115.695919 C 342.400997 110.481499 344.970693 105.961084 348.253152 102.153432 C 351.554368 98.34578 355.399533 95.344675 359.807406 93.150117 C 364.196523 90.955559 368.998291 89.848902 374.193954 89.848902 C 385.973291 89.848902 394.939093 95.157106 401.053844 105.792272 C 406.024424 114.72056 408.500336 124.886803 408.500336 136.309759 C 408.500336 136.534842 408.500336 137.078793 408.500336 137.960367 C 408.500336 138.841942 408.444065 139.723516 408.331524 140.623848 L 366.916274 140.623848 C 368.510611 145.031721 370.705169 148.164124 373.462434 150.021058 C 376.257214 151.859235 380.252435 152.778323 385.448098 152.778323 C 388.46796 152.778323 391.825446 152.459456 395.520557 151.840478 C 399.215667 151.183986 402.554397 150.283655 405.536745 149.139483 Z M 381.471634 123.81766 C 380.871413 119.784925 379.971081 116.877604 378.751882 115.114455 C 377.55144 113.295035 375.844562 112.394703 373.687517 112.394703 C 371.586744 112.394703 369.823595 113.44509 368.341799 115.527107 C 366.916274 117.590367 366.072213 120.347632 365.84713 123.81766 Z M 420.617298 119.841195 L 411.782795 119.841195 L 417.860032 91.574537 L 420.617298 91.574537 L 420.617298 80.995642 L 449.052768 73.717962 L 449.052768 91.574537 L 461.188487 91.574537 L 454.773625 119.841195 L 449.052768 119.841195 L 449.052768 175.999374 L 420.617298 175.999374 Z M 519.916361 91.574537 L 512.976306 91.574537 L 519.916361 60.400558 L 551.146611 60.400558 C 554.954263 60.400558 558.274235 60.5131 561.087771 60.738183 C 563.920064 60.963266 566.43349 61.394674 568.628048 62.051166 C 570.822606 62.670144 572.792081 63.476691 574.517716 64.45205 C 576.262109 65.446166 577.987744 66.684122 579.71338 68.184675 C 584.233794 72.236166 587.722579 77.450586 590.217247 83.790421 C 592.693159 90.149012 593.931115 97.145338 593.931115 104.779399 C 593.931115 113.670173 592.318021 121.698129 589.073076 128.863267 C 585.846888 136.028406 581.457772 141.33661 575.905727 144.806638 C 570.37244 148.501749 562.119401 150.358682 551.146611 150.358682 L 551.146611 175.999374 L 519.916361 175.999374 Z M 552.328296 120.347632 C 555.573241 120.347632 558.236721 118.940864 560.299981 116.127328 C 562.381998 113.276278 563.432385 109.656195 563.432385 105.285836 C 563.432385 95.813598 559.324622 90.843018 551.146611 90.392852 L 551.146611 120.347632 Z M 604.51001 85.872437 L 598.076391 85.872437 L 604.51001 57.605779 L 632.94548 57.605779 L 632.94548 148.276666 L 639.003961 148.276666 L 632.94548 175.999374 L 604.51001 175.999374 Z M 676.255178 175.661749 C 670.96573 175.436667 666.876725 174.892716 664.025675 174.011142 C 661.212139 173.129567 658.529901 171.53523 655.997719 169.22813 C 651.702387 165.420478 648.457442 160.449898 646.262884 154.335147 C 644.087083 148.220395 642.999182 141.167798 642.999182 133.177356 C 642.999182 126.837522 643.749459 121.060394 645.250011 115.864731 C 646.731807 110.650311 648.870094 106.186167 651.627359 102.491057 C 654.422139 98.795946 657.817139 95.98241 661.793603 94.031692 C 665.770067 92.062217 670.17794 91.068101 675.035979 91.068101 C 677.718217 91.068101 680.119101 91.368211 682.219874 91.968432 C 684.376918 92.531139 686.590233 93.450228 688.91609 94.70694 L 688.91609 91.574537 L 716.282417 91.574537 L 716.282417 148.276666 L 722.378411 148.276666 L 716.282417 175.999374 L 687.903217 175.999374 L 687.903217 150.527495 L 682.144847 175.999374 Z M 687.903217 131.995671 C 687.903217 129.913654 687.846946 128.206776 687.771918 126.875035 C 687.715648 125.543295 687.603106 124.455394 687.434294 123.57382 C 687.265482 122.692245 687.059156 121.99824 686.834073 121.491803 C 686.60899 120.96661 686.252609 120.460173 685.783686 120.010008 C 684.508217 118.640753 682.951393 117.946748 681.131974 117.946748 C 678.468493 117.946748 676.330205 119.297245 674.698355 121.99824 C 673.085261 124.717991 672.278714 128.263046 672.278714 132.670919 C 672.278714 143.193544 676.386476 148.445478 684.602001 148.445478 C 684.827084 148.445478 685.27725 148.445478 685.952499 148.445478 C 686.646504 148.445478 687.302996 148.389207 687.903217 148.276666 Z M 730.518909 120.010008 L 724.08529 120.010008 L 730.518909 91.574537 L 758.954379 91.574537 L 758.954379 117.065173 L 764.656479 91.574537 C 768.126506 91.574537 770.827501 91.574537 772.778219 91.574537 C 774.766451 91.574537 776.285761 91.612051 777.392418 91.668322 C 778.499076 91.724592 779.38065 91.818377 780.055899 91.968432 C 780.768661 92.080974 781.575208 92.249786 782.513054 92.474869 C 784.932695 93.037576 787.221037 94.144233 789.321811 95.776084 C 791.478855 97.370421 793.185734 99.396167 794.442446 101.815808 C 795.155209 102.978736 795.699159 104.085394 796.093054 105.117024 C 796.524463 106.16741 796.824573 107.461637 796.993386 109.01846 C 797.162198 110.575283 797.274739 112.619786 797.33101 115.151969 C 797.387281 117.684151 797.406038 121.097908 797.406038 125.39324 L 797.406038 148.276666 L 803.464518 148.276666 L 797.406038 175.999374 L 768.970567 175.999374 L 768.970567 138.560588 C 768.970567 135.559483 768.970567 133.21487 768.970567 131.489234 C 768.970567 129.744842 768.95181 128.338074 768.89554 127.287687 C 768.839269 126.256057 768.726727 125.44951 768.557915 124.886803 C 768.389103 124.286582 768.182777 123.705118 767.957694 123.142411 C 766.794766 120.947853 764.431396 119.841195 760.848827 119.841195 C 760.623744 119.841195 760.361147 119.841195 760.04228 119.841195 C 759.760926 119.841195 759.404545 119.897466 758.954379 120.010008 L 758.954379 175.999374 L 730.518909 175.999374 Z M 811.623773 120.010008 L 805.190154 120.010008 L 811.623773 91.574537 L 840.059243 91.574537 L 840.059243 117.065173 L 845.761343 91.574537 C 849.231371 91.574537 851.951122 91.574537 853.90184 91.574537 C 855.871315 91.574537 857.409382 91.612051 858.497282 91.668322 C 859.60394 91.724592 860.485515 91.818377 861.17952 91.968432 C 861.873526 92.080974 862.698829 92.249786 863.617918 92.474869 C 866.056316 93.037576 868.325901 94.144233 870.445432 95.776084 C 872.583719 97.370421 874.290598 99.396167 875.566067 101.815808 C 876.260073 102.978736 876.82278 104.085394 877.216675 105.117024 C 877.629327 106.16741 877.929438 107.461637 878.09825 109.01846 C 878.267062 110.575283 878.379603 112.619786 878.435874 115.151969 C 878.492145 117.684151 878.510902 121.097908 878.510902 125.39324 L 878.510902 148.276666 L 884.569383 148.276666 L 878.510902 175.999374 L 850.094188 175.999374 L 850.094188 138.560588 C 850.094188 135.559483 850.094188 133.21487 850.094188 131.489234 C 850.094188 129.744842 850.056674 128.338074 850.000404 127.287687 C 849.944133 126.256057 849.831592 125.44951 849.662779 124.886803 C 849.493967 124.286582 849.287641 123.705118 849.062558 123.142411 C 847.918387 120.947853 845.53626 119.841195 841.953691 119.841195 C 841.728608 119.841195 841.466011 119.841195 841.165901 119.841195 C 840.86579 119.841195 840.509409 119.897466 840.059243 120.010008 L 840.059243 175.999374 L 811.623773 175.999374 Z M 950.612451 175.155313 C 947.029882 176.055644 943.728666 176.712136 940.708804 177.106031 C 937.726456 177.518683 934.612809 177.743766 931.367865 177.743766 C 923.414936 177.743766 916.681207 176.374512 911.185433 173.673517 C 905.708416 170.935009 901.000433 166.639677 897.042725 160.768766 C 891.396897 152.328158 888.583361 142.91219 888.583361 132.502107 C 888.583361 126.499897 889.502449 120.891582 891.340626 115.695919 C 893.19756 110.481499 895.767256 105.961084 899.030958 102.153432 C 902.332173 98.34578 906.196096 95.344675 910.585212 93.150117 C 914.993085 90.955559 919.776096 89.848902 924.971759 89.848902 C 936.769854 89.848902 945.716898 95.157106 951.850407 105.792272 C 956.80223 114.72056 959.296899 124.886803 959.296899 136.309759 C 959.296899 136.534842 959.296899 137.078793 959.296899 137.960367 C 959.296899 138.841942 959.240628 139.723516 959.128086 140.623848 L 917.69408 140.623848 C 919.307174 145.031721 921.482975 148.164124 924.258997 150.021058 C 927.053776 151.859235 931.048997 152.778323 936.225903 152.778323 C 939.245765 152.778323 942.603252 152.459456 946.298362 151.840478 C 949.993473 151.183986 953.332202 150.283655 956.333307 149.139483 Z M 932.249439 123.81766 C 931.667975 119.784925 930.748887 116.877604 929.548445 115.114455 C 928.329246 113.295035 926.641124 112.394703 924.465323 112.394703 C 922.383306 112.394703 920.6014 113.44509 919.138361 115.527107 C 917.69408 117.590367 916.868776 120.347632 916.643693 123.81766 Z M 969.163031 120.010008 L 962.729412 120.010008 L 969.163031 91.574537 L 997.598502 91.574537 L 997.598502 99.208598 C 999.324137 96.432576 1001.424911 94.425587 1003.900822 93.150117 C 1006.376734 91.874648 1009.546651 91.236913 1013.37306 91.236913 C 1013.935767 91.236913 1014.517232 91.236913 1015.079939 91.236913 C 1015.661403 91.236913 1016.374165 91.349454 1017.180712 91.574537 L 1010.934662 120.010008 C 1009.209027 119.090919 1007.708474 118.621996 1006.433005 118.621996 C 1005.063751 118.621996 1003.713253 118.940864 1002.419027 119.597356 C 1001.143557 120.216333 1000.186955 121.041637 999.492949 122.092024 C 999.155325 122.692245 998.836458 123.32998 998.536347 124.042742 C 998.254994 124.717991 998.048668 125.599566 997.936126 126.706223 C 997.823585 127.812881 997.7298 129.182135 997.673529 130.8515 C 997.617259 132.520864 997.598502 134.621638 997.598502 137.15382 L 997.598502 175.999374 L 969.163031 175.999374 Z M 969.163031 120.010008 " stroke="#000000" stroke-width="4.658056" stroke-opacity="1" stroke-miterlimit="4"/></svg>